<svg width="1722" height="1115" viewBox="0 0 1722 1115" fill="none" xmlns="http://www.w3.org/2000/svg">
<g opacity="0.2" clip-path="url(#clip0_468_2114)">
<mask id="mask0_468_2114" style="mask-type:luminance" maskUnits="userSpaceOnUse" x="0" y="0" width="1722" height="1115">
<path d="M0 0L0 1115H1722V0H0Z" fill="white"/>
</mask>
<g mask="url(#mask0_468_2114)">
<path d="M1255.15 1826.6C1135.17 1875.03 1005.56 1901.21 875.366 1902.12C859.097 1902.24 842.822 1901.96 826.562 1901.29C810.299 1900.69 794.046 1899.69 777.823 1898.32C745.379 1895.56 713.059 1891.25 681.018 1885.41C648.977 1879.56 617.221 1872.19 585.836 1863.49C554.463 1854.74 523.507 1844.5 493.116 1832.81L470.438 1823.76L447.986 1814.18L425.747 1804.11C418.42 1800.58 411.044 1797.13 403.749 1793.53C374.591 1779.07 346.135 1763.22 318.521 1746.04L308.217 1739.52C304.78 1737.35 301.33 1735.2 297.972 1732.91L287.827 1726.15C284.437 1723.9 281.056 1721.64 277.749 1719.29C264.363 1710.07 251.187 1700.54 238.265 1690.69C212.416 1670.99 187.54 1650.03 163.768 1627.91C116.222 1583.68 72.901 1534.92 34.9754 1482.3C-2.99038 1429.7 -35.6452 1373.35 -62.4955 1314.38C-89.2798 1255.4 -110.285 1193.74 -124.861 1130.51C-132.153 1098.9 -137.846 1066.91 -141.9 1034.68C-145.967 1002.45 -148.373 969.991 -149.027 937.465C-151.887 807.362 -127.627 676.277 -77.8759 554.558C-52.9844 493.721 -22.0357 435.079 14.9285 380.116C51.8238 325.137 94.172 273.441 141.788 226.654C165.546 203.221 190.506 180.921 216.549 159.867C242.581 138.803 269.708 118.994 297.853 100.645C354.065 63.8336 414.143 32.6318 476.663 7.32408C507.96 -5.25033 539.889 -16.3739 572.308 -25.9629C604.738 -35.5199 637.668 -43.4837 670.914 -49.8838C737.425 -62.6185 805.243 -68.7022 872.949 -68.3803C1008.4 -67.5747 1143.3 -39.959 1267.12 11.791L1290.21 21.7451L1313.05 32.2401C1320.56 35.9279 1328.1 39.5768 1335.57 43.3316C1342.98 47.209 1350.43 51.0055 1357.8 54.9554C1387.23 70.8009 1415.84 88.0306 1443.5 106.563C1471.17 125.071 1497.83 144.964 1523.38 166.082C1548.93 187.188 1573.4 209.497 1596.65 232.902C1643.15 279.719 1684.58 331.081 1720.45 385.683C1756.3 440.3 1786.48 498.236 1810.64 558.271C1834.73 618.332 1852.83 680.553 1864.43 743.775C1870.24 775.383 1874.43 807.239 1877 839.182C1879.55 871.127 1880.48 903.156 1879.88 935.12C1879.26 967.085 1877.01 998.988 1873.16 1030.68C1871.24 1046.52 1868.88 1062.31 1866.19 1078.03C1865.59 1081.97 1864.85 1085.89 1864.1 1089.8L1861.88 1101.56C1861.18 1105.48 1860.32 1109.38 1859.48 1113.27L1856.97 1124.97C1843.13 1187.24 1822.85 1247.99 1797.17 1306.36C1771.4 1364.72 1739.62 1420.42 1703.04 1472.83C1684.7 1499 1665.05 1524.29 1644.17 1548.57C1633.74 1560.72 1622.99 1572.6 1611.97 1584.23C1600.99 1595.9 1589.72 1607.3 1578.15 1618.41C1485.65 1707.4 1375.14 1778.17 1255.15 1826.6ZM1253.2 1822.06C1312.88 1797.9 1370.16 1768.16 1423.87 1733.24C1477.6 1698.33 1527.75 1658.25 1573.36 1613.77C1664.63 1524.85 1737.48 1418.25 1786.72 1302.18C1836.01 1186.11 1861.51 1060.61 1861.2 935.135C1861.07 872.4 1854.53 809.689 1841.71 748.218C1828.9 686.741 1809.82 626.518 1785 568.622C1760.11 510.754 1729.49 455.218 1693.55 403.145C1657.62 351.066 1616.38 302.458 1570.62 258.266C1524.87 214.066 1474.61 174.283 1420.85 139.637C1367.1 104.972 1309.83 75.4966 1250.21 51.584C1130.94 3.79926 1001.99 -21.0807 872.99 -20.8507C808.501 -20.774 744.026 -14.4756 680.817 -2.08799C617.603 10.2857 555.668 28.7515 496.116 52.7853C436.576 76.8442 379.404 106.442 325.784 141.236C272.154 176.011 222.076 215.952 176.53 260.292C85.3654 348.929 12.5593 455.25 -36.7071 571.065C-61.3174 628.978 -80.1862 689.202 -92.8157 750.654C-105.455 812.102 -111.875 874.762 -111.894 937.436C-111.924 1000.11 -105.544 1062.79 -92.8845 1124.26C-80.2393 1185.74 -61.3117 1245.99 -36.6368 1303.95C-11.896 1361.87 18.5877 1417.49 54.4197 1469.68C90.2358 1521.86 131.383 1570.61 177.075 1614.95C268.423 1703.68 377.999 1774.65 497.459 1822.6C616.898 1870.58 746.08 1895.64 875.362 1895.53C939.994 1895.51 1004.62 1889.26 1067.99 1876.9C1131.37 1864.55 1193.48 1846.1 1253.2 1822.06Z" fill="url(#paint0_linear_468_2114)"/>
</g>
<mask id="mask1_468_2114" style="mask-type:luminance" maskUnits="userSpaceOnUse" x="0" y="0" width="1722" height="1115">
<path d="M0 0L0 1115H1722V0H0Z" fill="white"/>
</mask>
<g mask="url(#mask1_468_2114)">
<path d="M2469.59 16.8017C2443.75 59.6929 2413.66 100.184 2379.74 137.424C2362.75 156.008 2344.99 173.95 2326.28 190.941C2307.59 207.943 2288.03 224.051 2267.68 239.188C2257.52 246.765 2247.15 254.085 2236.6 261.157C2226.09 268.277 2215.39 275.144 2204.52 281.759C2182.78 294.986 2160.36 307.181 2137.37 318.287C2091.34 340.41 2043.21 358.608 1993.55 371.922C1943.89 385.171 1892.89 394.137 1841.34 398.002L1831.66 398.663C1828.44 398.884 1825.22 399.123 1821.99 399.238L1812.3 399.673C1809.07 399.828 1805.84 399.969 1802.6 400.017C1789.67 400.406 1776.72 400.509 1763.77 400.288C1737.87 399.85 1711.97 398.174 1686.18 395.254C1634.61 389.419 1583.46 378.81 1533.8 363.256C1484.13 347.741 1435.95 327.399 1390.13 302.725C1298.53 253.346 1216.27 186.222 1150.67 105.496C1084.99 24.8645 1035.92 -68.9934 1007.55 -168.79C993.395 -218.681 984.119 -270.001 980.487 -321.793C976.796 -373.563 978.137 -425.795 985.26 -477.365C988.766 -503.152 993.586 -528.782 999.7 -554.126C1002.75 -566.8 1006.13 -579.401 1009.84 -591.912C1013.53 -604.427 1017.66 -616.821 1022.03 -629.126C1039.59 -678.331 1062.12 -725.865 1089.19 -770.769C1116.46 -815.561 1148.19 -857.843 1183.9 -896.689C1219.66 -935.499 1259.57 -970.647 1302.5 -1001.73C1388.51 -1063.77 1487.29 -1108.57 1590.85 -1132.96C1694.4 -1157.44 1802.66 -1161.51 1907.12 -1145.07C2011.63 -1128.69 2112.03 -1091.65 2201.02 -1038C2245.51 -1011.16 2287.26 -980.198 2325.4 -945.629C2344.47 -928.348 2362.63 -910.172 2379.81 -891.19C2396.99 -872.206 2413.17 -852.422 2428.37 -831.988C2458.78 -791.106 2484.77 -747.322 2506.41 -701.739C2528.03 -656.126 2544.83 -608.514 2557.1 -559.939C2569.3 -511.329 2576.4 -461.639 2578.92 -411.828C2580.13 -386.915 2580.08 -361.958 2578.77 -337.078C2578.12 -324.638 2577.14 -312.218 2575.88 -299.829C2574.65 -287.437 2573.12 -275.075 2571.26 -262.762C2567.55 -238.135 2562.59 -213.694 2556.41 -189.558C2550.23 -165.419 2542.75 -141.612 2534.32 -118.147C2517.34 -71.2443 2495.58 -25.9976 2469.59 16.8017ZM2465.76 14.6219C2491.47 -28.0227 2512.95 -73.0674 2529.66 -119.727C2546.38 -166.383 2558.33 -214.642 2565.28 -263.571C2579.24 -361.433 2572.99 -461.912 2547.31 -557.469C2521.66 -653.036 2476.58 -743.639 2415.23 -822.351C2384.58 -861.719 2349.9 -898.124 2311.89 -930.866C2273.88 -963.618 2232.54 -992.696 2188.72 -1017.67C2144.88 -1042.61 2098.56 -1063.44 2050.59 -1079.64C2002.62 -1095.86 1953.01 -1107.45 1902.7 -1114.19C1802.09 -1127.73 1698.78 -1121.67 1600.53 -1096.76C1502.28 -1071.89 1409.13 -1028.17 1328.2 -968.658C1287.73 -938.93 1250.3 -905.305 1216.64 -868.436C1182.96 -831.574 1153.07 -791.474 1127.38 -748.978C1101.7 -706.484 1080.17 -661.609 1063.42 -615.091C1046.66 -568.583 1034.64 -520.458 1027.62 -471.648C1013.5 -374.023 1019.54 -273.712 1045.01 -178.245C1070.45 -82.7692 1115.3 7.81751 1176.46 86.5811C1207.02 125.974 1241.6 162.421 1279.54 195.218C1317.47 228.026 1358.75 257.171 1402.53 282.227C1446.32 307.237 1492.6 328.153 1540.56 344.449C1588.52 360.755 1638.14 372.443 1688.46 379.277C1789.12 393.004 1892.55 387.129 1990.98 362.356C2089.42 337.619 2182.83 293.993 2264.04 234.5C2304.65 204.781 2342.23 171.143 2376.05 134.242C2409.88 97.3451 2439.93 57.1926 2465.76 14.6219Z" fill="url(#paint1_linear_468_2114)"/>
</g>
<mask id="mask2_468_2114" style="mask-type:luminance" maskUnits="userSpaceOnUse" x="0" y="0" width="1722" height="1115">
<path d="M0 0L0 1115H1722V0H0Z" fill="white"/>
</mask>
<g mask="url(#mask2_468_2114)">
<path d="M1061.31 -1136.95C1082 -1147.23 1103.19 -1156.55 1124.8 -1164.84C1146.42 -1173.13 1168.41 -1180.52 1190.75 -1186.77C1213.09 -1192.99 1235.71 -1198.35 1258.58 -1202.53C1281.44 -1206.73 1304.53 -1209.83 1327.72 -1211.81C1339.32 -1212.81 1350.95 -1213.52 1362.59 -1213.96C1374.23 -1214.45 1385.88 -1214.67 1397.54 -1214.62C1420.85 -1214.5 1444.17 -1213.27 1467.4 -1210.93C1490.62 -1208.59 1513.73 -1205.14 1536.68 -1200.76C1559.62 -1196.34 1582.36 -1190.83 1604.79 -1184.24L1621.54 -1179.09L1638.18 -1173.55L1654.69 -1167.66C1660.15 -1165.57 1665.64 -1163.54 1671.08 -1161.4C1692.82 -1152.79 1714.16 -1143.13 1734.98 -1132.48C1740.15 -1129.74 1745.39 -1127.14 1750.5 -1124.29C1755.6 -1121.44 1760.78 -1118.71 1765.82 -1115.75C1775.98 -1109.95 1786.01 -1103.92 1795.88 -1097.64C1815.63 -1085.08 1834.77 -1071.57 1853.19 -1057.14C1890.05 -1028.3 1924.24 -995.995 1954.81 -960.528C1985.41 -925.093 2012.46 -886.609 2035.52 -845.875C2081.59 -764.408 2111.64 -673.51 2121.89 -579.861C2132.23 -486.26 2123.02 -390.178 2094.62 -299.319C2080.41 -253.909 2061.7 -209.688 2038.3 -167.817C2014.97 -125.936 1987.52 -86.053 1955.84 -49.506C1940.05 -31.1977 1923.32 -13.6379 1905.73 3.08292C1888.15 19.8121 1869.7 35.6953 1850.4 50.5499C1811.88 80.3636 1770.2 106.286 1726.41 128.063C1704.48 138.886 1682.01 148.694 1659.09 157.417C1636.15 166.11 1612.76 173.664 1589.05 180.107C1541.6 192.934 1492.82 200.948 1443.78 204.352C1345.65 210.98 1246.47 198.044 1154.13 166.98C1061.74 136.005 976.244 86.9449 904.255 23.9488C832.21 -39.0306 773.996 -115.9 733.063 -199.889C712.61 -241.901 696.371 -285.736 684.753 -330.572C678.942 -352.99 674.278 -375.653 670.782 -398.452C667.295 -421.253 664.972 -444.183 663.715 -467.129C662.487 -490.079 662.428 -513.057 663.53 -535.95C664.072 -547.397 664.943 -558.82 666.037 -570.214C666.506 -575.916 667.275 -581.592 667.881 -587.279C668.506 -592.964 669.405 -598.618 670.154 -604.284C676.753 -649.557 688.08 -694.023 703.278 -737.064C718.556 -780.097 738.308 -821.489 761.539 -860.813C773.204 -880.456 785.851 -899.528 799.423 -917.938C806.206 -927.145 813.233 -936.178 820.453 -945.056C827.639 -953.959 835.047 -962.692 842.681 -971.229C857.936 -988.316 874.056 -1004.66 890.959 -1020.19C907.856 -1035.72 925.577 -1050.39 943.87 -1064.32C980.544 -1092.08 1019.91 -1116.45 1061.31 -1136.95ZM1063.59 -1132.62C1022.52 -1112.19 983.47 -1087.92 947.257 -1060.15C911.039 -1032.39 877.659 -1001.15 847.77 -967.021C787.94 -898.793 742.247 -818.986 713.894 -733.726C685.51 -648.47 674.637 -557.789 682.102 -468.547C685.815 -423.927 694.092 -379.676 706.762 -336.649C719.422 -293.619 736.475 -251.824 757.472 -211.998C778.515 -172.194 803.498 -134.366 832.068 -99.2922C860.627 -64.2129 892.762 -31.8918 927.854 -2.96038C962.94 25.9781 1000.97 51.5283 1041.2 73.236C1081.42 94.9604 1123.84 112.786 1167.61 126.558C1255.16 154.061 1348.27 164.751 1439.97 157.588C1485.81 154.034 1531.29 146.058 1575.51 133.821C1619.74 121.594 1662.71 105.105 1703.66 84.7873C1744.61 64.4623 1783.57 40.3351 1819.69 12.7026C1855.83 -14.9173 1889.15 -46.0175 1918.99 -80.0013C1978.73 -147.944 2024.41 -227.47 2052.8 -312.479C2066.98 -354.988 2076.97 -398.823 2082.44 -443.201C2087.92 -487.577 2088.91 -532.481 2085.35 -577.053C2081.79 -621.625 2073.68 -665.859 2061.17 -708.896C2048.67 -751.939 2031.77 -793.775 2010.91 -833.669C1990 -873.54 1965.15 -911.462 1936.68 -946.653C1908.22 -981.848 1876.17 -1014.31 1841.13 -1043.39C1771.08 -1101.59 1689.07 -1146.2 1601.33 -1173.87C1513.59 -1201.55 1420.24 -1212.39 1328.25 -1205.33C1282.26 -1201.82 1236.63 -1193.88 1192.25 -1181.66C1147.85 -1169.45 1104.72 -1152.96 1063.59 -1132.62Z" fill="url(#paint2_linear_468_2114)"/>
</g>
<mask id="mask3_468_2114" style="mask-type:luminance" maskUnits="userSpaceOnUse" x="0" y="0" width="1722" height="1115">
<path d="M0 0L0 1115H1722V0H0Z" fill="white"/>
</mask>
<g mask="url(#mask3_468_2114)">
<path d="M1079.03 -78.9613C1100.44 -70.1918 1121.42 -60.4272 1141.86 -49.6925C1162.3 -38.9537 1182.26 -27.3507 1201.56 -14.7596C1220.84 -2.14617 1239.62 11.2283 1257.62 25.5421C1275.64 39.842 1292.93 55.0157 1309.42 70.9881C1317.67 78.9673 1325.7 87.1584 1333.53 95.5348C1341.41 103.868 1349.08 112.395 1356.54 121.099C1371.44 138.51 1385.48 156.645 1398.57 175.418C1411.66 194.197 1423.81 213.604 1435.12 233.483C1446.39 253.385 1456.67 273.84 1465.91 294.755L1472.64 310.528L1478.96 326.462L1484.95 342.534C1486.81 347.935 1488.74 353.321 1490.55 358.745C1497.75 380.454 1503.86 402.529 1508.86 424.87C1510.03 430.468 1511.34 436.046 1512.39 441.673C1513.42 447.301 1514.61 452.91 1515.51 458.565C1517.47 469.85 1519.17 481.187 1520.57 492.567C1523.38 515.327 1525.03 538.253 1525.52 561.234C1526.49 607.192 1523.02 653.4 1514.72 698.946C1506.47 744.496 1493.54 789.369 1476.26 832.721C1441.68 919.385 1389.35 1000.2 1322.12 1068.06C1254.99 1135.97 1173.32 1190.92 1083.44 1228.26C1038.5 1246.9 991.605 1261.44 943.545 1270.97C895.52 1280.56 846.427 1285.81 797.237 1285.76C772.647 1285.79 748.042 1284.65 723.547 1282.32C699.05 1280.01 674.659 1276.51 650.534 1271.71C602.255 1262.24 555.006 1247.92 509.674 1229.37C487.037 1220.03 464.848 1209.63 443.227 1198.19C421.621 1186.73 400.617 1174.19 380.285 1160.71C339.654 1133.68 301.955 1102.56 267.726 1068.28C199.377 999.57 145.773 917.495 110.859 828.844C75.8451 740.218 59.5191 645.078 62.8713 551.024C66.1718 456.936 89.3212 364.198 129.197 279.731C149.158 237.497 173.266 197.224 201.136 159.741C215.069 140.998 229.934 122.95 245.659 105.686C261.388 88.4253 277.969 71.9484 295.249 56.2506C312.551 40.5737 330.627 25.7497 349.382 11.8415C358.755 4.88251 368.32 -1.81858 378.004 -8.33436C382.8 -11.6543 387.771 -14.7331 392.643 -17.9401C397.526 -21.1318 402.562 -24.1019 407.511 -27.189C447.444 -51.404 489.784 -71.5855 533.488 -87.9704C577.24 -104.291 622.574 -116.23 668.517 -124.253C691.503 -128.214 714.674 -131.076 737.917 -132.828C749.539 -133.706 761.178 -134.292 772.822 -134.635C784.464 -135.018 796.112 -135.128 807.754 -134.943C831.037 -134.59 854.292 -133.118 877.406 -130.536C900.522 -127.964 923.481 -124.221 946.23 -119.578C991.701 -110.16 1036.24 -96.5601 1079.03 -78.9613ZM1077.08 -74.4846C1034.55 -91.8841 990.299 -105.307 945.116 -114.374C899.937 -123.451 853.835 -128.175 807.707 -128.448C715.436 -129.048 623.13 -111.688 537.681 -77.9271C452.215 -44.19 373.738 6.05609 308.192 69.016C275.408 100.481 245.848 135.102 220.081 172.201C194.303 209.295 172.327 248.861 154.439 290.095C136.599 331.349 122.85 374.261 113.578 418.068C104.298 461.872 99.4925 506.559 99.2586 551.265C99.0175 595.971 103.341 640.69 112.106 684.566C120.852 728.448 134.093 771.465 151.389 812.869C186.03 895.667 237.499 971.784 302.132 1035.36C334.424 1067.17 369.964 1095.85 408.058 1120.87C446.147 1145.89 486.786 1167.24 529.147 1184.62C571.511 1202 615.587 1215.44 660.61 1224.53C705.628 1233.64 751.575 1238.4 797.563 1238.74C889.55 1239.45 981.623 1222.26 1066.9 1188.69C1109.53 1171.89 1150.51 1151.12 1189.02 1126.64C1227.52 1102.17 1263.56 1074.02 1296.4 1042.7C1329.25 1011.39 1358.9 976.899 1384.78 939.909C1410.67 902.924 1432.77 863.444 1450.8 822.27C1468.79 781.076 1482.69 738.196 1492.12 694.39C1501.56 650.589 1506.52 605.873 1506.91 561.11C1507.73 471.578 1490.14 381.899 1455.5 298.852C1420.89 215.803 1369.38 139.407 1304.64 75.5498C1272.29 43.6079 1236.68 14.7851 1198.49 -10.3609C1160.31 -35.5139 1119.57 -56.9846 1077.08 -74.4846Z" fill="url(#paint3_linear_468_2114)"/>
</g>
</g>
<defs>
<linearGradient id="paint0_linear_468_2114" x1="484.338" y1="25.5472" x2="1225.83" y2="1862.45" gradientUnits="userSpaceOnUse">
<stop stop-color="#6F97C7"/>
<stop offset="1" stop-color="#6F97C7" stop-opacity="0"/>
</linearGradient>
<linearGradient id="paint1_linear_468_2114" x1="1104.41" y1="-761.973" x2="2465.76" y2="61.3863" gradientUnits="userSpaceOnUse">
<stop stop-color="#89CDE6"/>
<stop offset="0.0695" stop-color="#89CDE6" stop-opacity="0.9305"/>
<stop offset="1" stop-color="#89CDE6" stop-opacity="0"/>
</linearGradient>
<linearGradient id="paint2_linear_468_2114" x1="1717.42" y1="110.706" x2="1081.47" y2="-1171.51" gradientUnits="userSpaceOnUse">
<stop offset="0.0002776" stop-color="#BAE6E6"/>
<stop offset="0.1411" stop-color="#BAE6E6" stop-opacity="0.8591"/>
<stop offset="1" stop-color="#BAE6E6" stop-opacity="0"/>
</linearGradient>
<linearGradient id="paint3_linear_468_2114" x1="517.567" y1="1211.52" x2="1060.24" y2="-110.421" gradientUnits="userSpaceOnUse">
<stop offset="0.0002776" stop-color="#BAE6E6"/>
<stop offset="0.1411" stop-color="#BAE6E6" stop-opacity="0.8591"/>
<stop offset="1" stop-color="#BAE6E6" stop-opacity="0"/>
</linearGradient>
<clipPath id="clip0_468_2114">
<rect width="1115" height="1722" fill="white" transform="matrix(0 -1 1 0 0 1115)"/>
</clipPath>
</defs>
</svg>
